# xmcd
#
# Track frame offsets: 
#        150
#        53411
#        105132
#        160390
#        176955
#        194963
#        229184
#        254779
#
# Disc length: 3714 seconds
#
# Revision: 0
# Processed by: cddbd v1.4PL0 Copyright (c) Steve Scherf et al.
# Submitted via: ExactAudioCopy v0.90b3
#
DISCID=6f0e8008
DTITLE=Oleg Volkov and the Moscow Philharmonic - Celebrate Rachmaninof
DTITLE=f - Disc 2
DYEAR=1900
DGENRE=Classical
TTITLE0=Piano Concerto No. 2 in C Minor - 1st Movement
TTITLE1=Piano Concerto No. 2 in C Minor - 2nd Movement
TTITLE2=Piano Concerto No. 2 in C Minor - 3rd Movement
TTITLE3=Prelude No. 2 in B-Flat Major
TTITLE4=Prelude No. 5 in G Minor
TTITLE5=Piano Sonata No. 2 in B-Flat Minor - 1st Movement
TTITLE6=Piano Sonata No. 2 in B-Flat Minor - 2nd Movement
TTITLE7=Piano Sonata No. 2 in B-Flat Minor - 3rd Movement
EXTD=
EXTT0=
EXTT1=
EXTT2=
EXTT3=
EXTT4=
EXTT5=
EXTT6=
EXTT7=
PLAYORDER=
